<?xml version="1.0" encoding="UTF-8"?>
<!DOCTYPE svg PUBLIC "-//W3C//DTD SVG 1.1//EN" "http://www.w3.org/Graphics/SVG/1.1/DTD/svg11.dtd">
<!-- Creator: CorelDRAW X8 -->
<svg xmlns="http://www.w3.org/2000/svg" xml:space="preserve" width="37.917mm" height="22.4466mm" version="1.1" style="shape-rendering:geometricPrecision; text-rendering:geometricPrecision; image-rendering:optimizeQuality; fill-rule:evenodd; clip-rule:evenodd"
viewBox="0 0 799 473"
 xmlns:xlink="http://www.w3.org/1999/xlink">
 <defs>
  <style type="text/css">
   <![CDATA[
    .str2 {stroke:#008DD2;stroke-width:1.60603}
    .str3 {stroke:#008DD2;stroke-width:1.60814}
    .str1 {stroke:#008DD2;stroke-width:1.60814}
    .str0 {stroke:#008DD2;stroke-width:1.60814}
    .fil1 {fill:none;fill-rule:nonzero}
    .fil0 {fill:#008DD2}
   ]]>
  </style>
 </defs>
 <g id="CTCom_x0020_Logo">
  <metadata id="CorelCorpID_0Corel-Layer"/>
  <g id="_775229664">
   <path class="fil0 str0" d="M189 152c-34,0 -62,12 -86,37 -24,25 -36,55 -36,90 0,35 12,66 35,90 24,25 53,37 86,36l148 0 0 63 -148 0c-50,1 -93,-18 -128,-55 -35,-37 -53,-81 -53,-134 0,-52 18,-97 54,-134 35,-38 78,-57 128,-57l63 0 0 64 -63 0z"/>
   <path class="fil0 str0" d="M542 64c-33,0 -62,13 -86,38 -24,26 -36,56 -36,90 0,36 12,66 36,92 24,25 53,38 86,37l70 0 0 63 -70 0c-50,1 -93,-18 -129,-56 -35,-38 -53,-83 -53,-136 0,-52 18,-97 53,-135 36,-37 79,-56 129,-56l70 0 0 63 -70 0z"/>
   <path class="fil0 str0" d="M1 1l454 0c-9,3 -18,8 -25,13 -8,6 -14,11 -19,15 -14,11 -25,24 -32,38l-43 0 0 316 -60 0 0 -316 -275 0 0 -66z"/>
   <path class="fil0 str1" d="M380 401l77 0c14,0 20,7 20,22l0 25c0,15 -6,23 -20,23l-77 0c-13,0 -19,-8 -19,-23l0 -25c0,-15 6,-22 19,-22zm26 21c-2,0 -3,1 -3,2l0 22c0,1 1,1 3,1l27 0c2,0 2,0 2,-1l0 -22c0,-1 0,-2 -2,-2l-27 0z"/>
   <polygon class="fil0 str0" points="500,471 500,401 543,401 557,419 571,401 616,401 616,471 576,471 577,450 557,471 538,450 538,471 "/>
   <g>
    <path class="fil0" d="M798 393c0,43 -32,79 -78,79 -46,0 -79,-37 -79,-79 0,-42 33,-78 78,-78 46,0 79,36 79,78zm-15 0c0,-34 -27,-63 -64,-63 -36,0 -63,29 -63,63 0,34 27,64 64,64 36,0 63,-30 63,-64z"/>
    <path id="1" class="fil1 str2" d="M798 393c0,43 -32,79 -78,79 -46,0 -79,-37 -79,-79 0,-42 33,-78 78,-78 46,0 79,36 79,78zm-15 0c0,-34 -27,-63 -64,-63 -36,0 -63,29 -63,63 0,34 27,64 64,64 36,0 63,-30 63,-64z"/>
   </g>
   <path class="fil0 str3" d="M752 430l-15 0c-2,-4 -3,-9 -3,-13 0,-7 0,-11 -2,-13 -2,-2 -6,-3 -12,-3l-13 0 0 29 -16 0 0 -73 32 0c18,0 27,7 27,22 0,6 -3,12 -8,15 4,3 7,9 7,18 0,3 1,6 1,10l2 8zm-17 -51c0,-6 -5,-8 -14,-8l-14 0 0 17 13 0c10,0 15,-3 15,-9z"/>
  </g>
 </g>
</svg>
