<svg id="лого_вектор" xmlns="http://www.w3.org/2000/svg" width="264" height="70.969" viewBox="0 0 264 70.969">
  <metadata><?xpacket begin="﻿" id="W5M0MpCehiHzreSzNTczkc9d"?>
<x:xmpmeta xmlns:x="adobe:ns:meta/" x:xmptk="Adobe XMP Core 5.6-c138 79.159824, 2016/09/14-01:09:01        ">
   <rdf:RDF xmlns:rdf="http://www.w3.org/1999/02/22-rdf-syntax-ns#">
      <rdf:Description rdf:about=""/>
   </rdf:RDF>
</x:xmpmeta>
                                                                                                    
                                                                                                    
                                                                                                    
                                                                                                    
                                                                                                    
                                                                                                    
                                                                                                    
                                                                                                    
                                                                                                    
                                                                                                    
                                                                                                    
                                                                                                    
                                                                                                    
                                                                                                    
                                                                                                    
                                                                                                    
                                                                                                    
                                                                                                    
                                                                                                    
                                                                                                    
                           
<?xpacket end="w"?></metadata>
<defs>
    <style>
      .cls-1 {
        fill: #000000 !important;
      }

      .cls-1, .cls-2, .cls-3 {
        fill-rule: evenodd;
      }

      .cls-2 {
        fill: #fdd100;
      }

      .cls-3 {
        fill: #dc291a;
      }
    </style>
  </defs>
  <path id="Фигура_4" data-name="Фигура 4" class="cls-1" d="M503.453,96.117a9.432,9.432,0,0,0,3.462.643c3.653,0,6.208-1.476,7.259-6.43,1.05-4.929-.932-6.31-4.561-6.31a13.509,13.509,0,0,0-3.7.572L506.1,86.5a8.865,8.865,0,0,1,3.009-.5c2.1,0,3.175.5,2.913,3.024h-5.182l-0.405,1.857h5.229c-0.788,3.143-2.125,3.905-4.441,3.905a6.906,6.906,0,0,1-2.77-.548l-1,1.881h0Zm22.826,0.309c-1.743-5.429-2.746-6.072-3.94-6.572a56.239,56.239,0,0,0,6.161-5.5h-2.746c-2.77,2.643-5.205,4.858-6.423,5.81l1.242-5.81h-2.245l-2.555,12.073h2.245l1.217-5.763c1.5,0.309,2.961,1.238,4.37,5.763h2.674Zm10.792-2.286a8.783,8.783,0,0,1-3.008.6c-2.459,0-3.462-.81-2.722-4.358,0.812-3.738,2.1-4.334,4.56-4.334a6.679,6.679,0,0,1,2.77.548l1.027-2a11.092,11.092,0,0,0-3.462-.572c-3.7,0-6.209,1.381-7.259,6.31-1.05,4.953.836,6.43,4.56,6.43a11.4,11.4,0,0,0,3.7-.643l-0.167-1.977h0Zm6.781-7.787h5.659l-2.125,10.073h2.244l2.555-12.073H542.037l-2.554,12.073h2.244l2.125-10.073h0Zm13.156,0.1a9.353,9.353,0,0,1,2.913-.428c2.459,0,3.128.667,2.34,4.381-0.74,3.477-1.743,4.381-4.2,4.381-1.552,0-2.722-.524-2.531-1.453l1.48-6.882h0ZM551.66,101H553.9l1.075-5.1a4.452,4.452,0,0,0,2.936.857c3.51,0,5.683-1.476,6.734-6.406s-0.43-6.334-4.3-6.334a16.923,16.923,0,0,0-5.277.9L551.66,101h0ZM575.3,94.212a14.507,14.507,0,0,1-3.558.572c-2.459,0-3.438-.691-2.77-3.929h8.238c1.289-5.5-.024-6.834-3.653-6.834-3.558,0-5.85,1.524-6.877,6.31-1.05,4.953.812,6.43,4.393,6.43a17.642,17.642,0,0,0,4.251-.667L575.3,94.212h0ZM573.244,85.9c1.958,0,2.555.548,2.125,3.12H569.4c0.692-2.405,1.648-3.12,3.844-3.12h0ZM587.4,94.14a8.784,8.784,0,0,1-3.009.6c-2.459,0-3.462-.81-2.721-4.358,0.811-3.738,2.1-4.334,4.56-4.334a6.683,6.683,0,0,1,2.77.548l1.026-2a11.082,11.082,0,0,0-3.462-.572c-3.7,0-6.208,1.381-7.258,6.31-1.051,4.953.836,6.43,4.56,6.43a11.406,11.406,0,0,0,3.7-.643L587.4,94.14h0Zm10.935,0a8.783,8.783,0,0,1-3.008.6c-2.459,0-3.462-.81-2.722-4.358,0.812-3.738,2.1-4.334,4.56-4.334a6.679,6.679,0,0,1,2.77.548l1.027-2a11.092,11.092,0,0,0-3.462-.572c-3.7,0-6.208,1.381-7.259,6.31-1.05,4.953.836,6.43,4.561,6.43a11.4,11.4,0,0,0,3.7-.643l-0.167-1.977h0Z" transform="translate(-387 -30.031)"/>
  <path id="Фигура_4_копия" data-name="Фигура 4 копия" class="cls-2" d="M617.475,69.561L630.488,67.3l19.057-15.842a2.888,2.888,0,0,0,.845-4.272l-13.322-15.94c-1.6-1.737-3.257-1.515-4.945-.18L613.289,46.721,608.715,59.08l8.76,10.481h0Zm-1.084-8.214a2.405,2.405,0,1,1,3.391.307,2.4,2.4,0,0,1-3.391-.307h0Z" transform="translate(-387 -30.031)"/>
  <path id="Фигура_4_копия_2" data-name="Фигура 4 копия 2" class="cls-3" d="M602.477,63.525l0.871-7.128a7.115,7.115,0,0,0-1.122-5.437,5.035,5.035,0,0,0-4.238-2.1,8.376,8.376,0,0,0-4.284,1.325,11.384,11.384,0,0,0-3.871,4.112,6.139,6.139,0,0,0-1.718-3.975,5.057,5.057,0,0,0-3.688-1.462,8.4,8.4,0,0,0-4.215,1.279,11.22,11.22,0,0,0-3.848,3.975,5.637,5.637,0,0,0-1.672-3.861,5.5,5.5,0,0,0-3.917-1.394,7.188,7.188,0,0,0-3.62,1.028,5.093,5.093,0,0,0-2.29,2.216,0.416,0.416,0,0,0,.16.594q0.344,0.228.87,0.617a2.816,2.816,0,0,1,.779,1.759,14.87,14.87,0,0,1-.023,3.975q-0.366,3.153-1.969,13.57v0.091l0.137,0.137h9.208a0.606,0.606,0,0,0,.161-0.114,0.218,0.218,0,0,0,.069-0.16l1.511-12.245a9.053,9.053,0,0,1,1.192-3.518q1.191-1.782,2.382-1.553,1.327,0.228,1.008,2.65-0.092,1.188-.367,3.244-0.412,2.97-1.374,11.468a0.056,0.056,0,0,0,0,.091l0.137,0.137h9.209a0.617,0.617,0,0,0,.16-0.114,0.218,0.218,0,0,0,.069-0.16l1.053-11.423,0.092-.822a7.9,7.9,0,0,1,1.191-3.518q1.191-1.782,2.382-1.553,1.329,0.228,1.008,2.65l-1.1,8.864a6.113,6.113,0,0,0,1.351,5.049,5.855,5.855,0,0,0,4.559,1.9,6.658,6.658,0,0,0,1.927-.288c5.362-1.2,12.686-7.583,16.623-11.5,1.122-1.713-.145-3.262-1.895-1.963-2.717,3.173-11.92,10.175-13.025,4.852q0.039-.6.126-1.292h0ZM404.7,38.441Q394.668,37.892,390,41.959a7.9,7.9,0,0,0-2.932,7.128,6.672,6.672,0,0,0,2.8,5.026,7.977,7.977,0,0,0,4.535,1.416,9.078,9.078,0,0,0,4.009-.777,6.4,6.4,0,0,0,2.313-1.736,5.639,5.639,0,0,0,.848-1.3,0.672,0.672,0,0,0,.023-0.617A4.033,4.033,0,0,0,400.9,50.5a5.025,5.025,0,0,1-.917-0.868,3.116,3.116,0,0,1-.641-1.645,5.555,5.555,0,0,1,.161-2.17,3.236,3.236,0,0,1,1.557-1.9,5.763,5.763,0,0,1,3.322-.685q0.411,11.377-1.97,19.236a16.052,16.052,0,0,0-5.544-2.33,8.009,8.009,0,0,0-4.444.205,7.114,7.114,0,0,0-2.909,2.056,5.611,5.611,0,0,0-1.306,3.039,6.207,6.207,0,0,0,2.566,5.871,11.137,11.137,0,0,0,7.009,2.262,12.332,12.332,0,0,0,3.436-.5,10.838,10.838,0,0,0,4.628-2.285,0.987,0.987,0,0,0,.229-0.183,0.97,0.97,0,0,1,.229-0.183,15.855,15.855,0,0,0,6.574,2.924,11.386,11.386,0,0,0,6.162-.48,14.755,14.755,0,0,0,8.5-8.544,18.1,18.1,0,0,0,1.26-6.739,16.4,16.4,0,0,0-.733-4.82,17.574,17.574,0,0,0-2.5-4.912,18.939,18.939,0,0,0-4.444-4.455,24.76,24.76,0,0,0-6.917-3.313,37.139,37.139,0,0,0-9.507-1.645h0ZM396.5,65.9a1.308,1.308,0,0,1,.618-1.028,2.406,2.406,0,0,1,1.695-.228,6.178,6.178,0,0,1,2.451,1.028,3.455,3.455,0,0,1-1.947,1.576,2.589,2.589,0,0,1-2.016-.114,1.281,1.281,0,0,1-.8-1.234h0Zm13.1,0.228Q413.635,59,414.46,45.386a6.052,6.052,0,0,1,1.511.959q3.207,2.65,3.253,8.224a14.673,14.673,0,0,1-2.565,8.727q-2.888,4.021-7.056,2.833h0Zm45.035-2.559Q455,60.417,456.654,50V49.909l-0.138-.137h-9.208l-0.229.274-1.558,12.565a7.431,7.431,0,0,1-1.191,3.2q-1.146,1.782-2.383,1.553t-0.962-2.65l1.1-8.864a6.11,6.11,0,0,0-1.352-5.049,5.907,5.907,0,0,0-4.6-1.9,7.067,7.067,0,0,0-3.6,1.028,5.424,5.424,0,0,0-2.314,2.216,0.386,0.386,0,0,0,.092.5,3.324,3.324,0,0,0,.687.388,2.187,2.187,0,0,1,.871.822,4.585,4.585,0,0,1,.595,1.828,14.261,14.261,0,0,1-.046,3.4l-0.87,7.128a7.247,7.247,0,0,0,1.168,5.437,4.99,4.99,0,0,0,4.192,2.1,8.233,8.233,0,0,0,4.215-1.279,11.769,11.769,0,0,0,3.848-3.975,5.589,5.589,0,0,0,1.695,3.861,5.52,5.52,0,0,0,3.895,1.394,7.067,7.067,0,0,0,3.6-1.028,5.412,5.412,0,0,0,2.313-2.216,0.415,0.415,0,0,0-.16-0.594q-0.344-.229-0.87-0.617a2.894,2.894,0,0,1-.8-1.759,14.117,14.117,0,0,1,0-3.975h0ZM480.2,65.4a0.476,0.476,0,0,0-.642.046,15.846,15.846,0,0,1-4.123,1.6,12.5,12.5,0,0,1-4.146.3,4.491,4.491,0,0,1-3.23-1.828,6.981,6.981,0,0,1-1.145-4.546,11.224,11.224,0,0,1,1.305-5q1.215-2.262,2.955-2.262a1.6,1.6,0,0,1,1.467.868,3.588,3.588,0,0,1,.32,2.285c-0.031.213-.076,0.48-0.137,0.8a4.484,4.484,0,0,0-.092.617,3.619,3.619,0,0,0,.046.457,2.224,2.224,0,0,0,1.1.5,7.33,7.33,0,0,0,2.016.274,4.732,4.732,0,0,0,3.39-1.416,5.075,5.075,0,0,0,1.65-3.152,4.519,4.519,0,0,0-2.474-4.729,13.64,13.64,0,0,0-7.01-1.668,14.027,14.027,0,0,0-9.162,3.815,13.8,13.8,0,0,0-4.536,8.613,10.8,10.8,0,0,0,11,12.473,12,12,0,0,0,4.467-.845,11.65,11.65,0,0,0,3.528-2.1,18.871,18.871,0,0,0,2.268-2.376,9.218,9.218,0,0,0,1.236-1.988A0.581,0.581,0,0,0,480.2,65.4h0Zm27.671,3.929q-5.178-3.381-6.46-7.95,5.865-2.742,6.322-6.58a4.9,4.9,0,0,0-5.222-5.757,6.227,6.227,0,0,0-3.482,1.051,3.165,3.165,0,0,0-1.695,2.239l0.412,0.731a8.326,8.326,0,0,1,.756,1.531,2.9,2.9,0,0,1-.046,1.9,3.826,3.826,0,0,1-1.626,1.965,7.892,7.892,0,0,1-2.978,1.142l0.55-3.746a6.525,6.525,0,0,0-1.169-5.072A5.333,5.333,0,0,0,488.86,48.9a7.188,7.188,0,0,0-3.619,1.028,5.4,5.4,0,0,0-2.336,2.216,0.439,0.439,0,0,0,.183.617q0.366,0.251.87,0.571a2.862,2.862,0,0,1,.8,1.8,13.362,13.362,0,0,1,.023,3.952l-1.878,13.57v0.092l0.137,0.091h8.8a0.273,0.273,0,0,0,.183-0.183L493.35,63.3a1.889,1.889,0,0,1,.412-0.069c0.184-.015.321-0.023,0.413-0.023q0,0.228.045,1.074t0.069,1.279c0.016,0.289.061,0.739,0.138,1.348a8.919,8.919,0,0,0,.275,1.439q0.159,0.526.458,1.325a4.184,4.184,0,0,0,.71,1.279A13.049,13.049,0,0,0,496.9,72a4.058,4.058,0,0,0,1.375.845,10.756,10.756,0,0,0,1.81.457,11.006,11.006,0,0,0,2.29.137,8.459,8.459,0,0,0,5.452-2.513,1.774,1.774,0,0,0,.6-0.982,1.243,1.243,0,0,0-.549-0.617h0Zm26.755-7.082a11.283,11.283,0,0,0-2.566-9,11.987,11.987,0,0,0-8.7-4.249,13.36,13.36,0,0,0-9.6,2.97,12.506,12.506,0,0,0-4.788,8.453,11.245,11.245,0,0,0,2.589,9,12.064,12.064,0,0,0,8.727,4.249,13.311,13.311,0,0,0,9.644-2.947,12.579,12.579,0,0,0,4.7-8.475h0ZM518,61.057a13.141,13.141,0,0,1,1.6-5.117,3.251,3.251,0,0,1,3.115-1.828,2.877,2.877,0,0,1,2.589,2.239,11.786,11.786,0,0,1,.3,5.254,13.14,13.14,0,0,1-1.581,5.163,3.214,3.214,0,0,1-3.092,1.782,2.883,2.883,0,0,1-2.589-2.262A12.12,12.12,0,0,1,518,61.057h0Zm42.24,2.559,1.649-13.524V50l-0.138-.137h-8.8a0.255,0.255,0,0,0-.275.229l-1.008,8.361h-4.489l0.32-2.65a6.458,6.458,0,0,0-1.191-5.049,5.371,5.371,0,0,0-4.4-1.9,7.066,7.066,0,0,0-3.6,1.028A5.423,5.423,0,0,0,536,52.1a0.416,0.416,0,0,0,.161.594q0.344,0.228.87,0.617a2.9,2.9,0,0,1,.8,1.759,14.116,14.116,0,0,1,0,3.975q-0.368,3.153-1.97,13.57a0.056,0.056,0,0,0,0,.091L536,72.845h9.209a0.617,0.617,0,0,0,.16-0.114,0.218,0.218,0,0,0,.069-0.16l1.053-8.773h4.49l-0.366,3.061a6.316,6.316,0,0,0,1.191,5,5.431,5.431,0,0,0,4.4,1.85,7.309,7.309,0,0,0,3.6-.982,4.98,4.98,0,0,0,2.268-2.125,0.416,0.416,0,0,0-.16-0.594q-0.343-.229-0.871-0.64a3.028,3.028,0,0,1-.8-1.782,14.041,14.041,0,0,1,0-3.975h0ZM602.89,38.578a5,5,0,0,0-.664.411,13.98,13.98,0,0,1-1.329.777,8.846,8.846,0,0,1-2.107.662,12.943,12.943,0,0,1-3.047.251,33.244,33.244,0,0,1-6.231-.914,37.724,37.724,0,0,0-7.055-.96H581.4q-6.093.183-8.979,4.3a5.116,5.116,0,0,0-1.237,3.518q0.092,0.5.458,0.411a9.949,9.949,0,0,0,.939-0.548,10.258,10.258,0,0,1,2.5-1.005,13.776,13.776,0,0,1,3.757-.457,34.51,34.51,0,0,1,6.162.754,50.431,50.431,0,0,0,6.666.891q7.833,0.183,10.766-3.792a4.429,4.429,0,0,0,1.053-3.7q-0.183-.777-0.6-0.594h0Z" transform="translate(-387 -30.031)"/>
</svg>
