<svg xmlns="http://www.w3.org/2000/svg" width="10.875" height="18" viewBox="0 0 10.875 18">
  <metadata><?xpacket begin="﻿" id="W5M0MpCehiHzreSzNTczkc9d"?>
<x:xmpmeta xmlns:x="adobe:ns:meta/" x:xmptk="Adobe XMP Core 5.6-c138 79.159824, 2016/09/14-01:09:01        ">
   <rdf:RDF xmlns:rdf="http://www.w3.org/1999/02/22-rdf-syntax-ns#">
      <rdf:Description rdf:about=""/>
   </rdf:RDF>
</x:xmpmeta>
<?xpacket end="w"?></metadata>
<defs>
    <style>
      .cls-1 {
        fill: #001825;
        fill-rule: evenodd;
      }
    </style>
  </defs>
  <path id="одноклассники" class="cls-1" d="M985.4,2131.08a9.11,9.11,0,0,0,2.814-1.12,1.322,1.322,0,0,0,.445-1.87,1.453,1.453,0,0,0-1.958-.43,6.361,6.361,0,0,1-6.524,0,1.452,1.452,0,0,0-1.957.43,1.322,1.322,0,0,0,.445,1.87,9.1,9.1,0,0,0,2.814,1.12l-2.71,2.6a1.318,1.318,0,0,0,0,1.92,1.46,1.46,0,0,0,2.008,0l2.661-2.55,2.663,2.55a1.416,1.416,0,0,0,1,.4h0.011a1.418,1.418,0,0,0,1-.4,1.315,1.315,0,0,0,0-1.92l-2.709-2.6h0Zm-1.96-10.35a1.922,1.922,0,1,1-2.007,1.92,1.966,1.966,0,0,1,2.007-1.92h0Zm0.013-2.73h-0.027a4.85,4.85,0,1,0,.027,0h0Z" transform="translate(-978 -2118)"/>
</svg>
