<svg xmlns="http://www.w3.org/2000/svg" width="38.34" height="37.969" viewBox="0 0 38.34 37.969">
  <metadata><?xpacket begin="﻿" id="W5M0MpCehiHzreSzNTczkc9d"?>
<x:xmpmeta xmlns:x="adobe:ns:meta/" x:xmptk="Adobe XMP Core 5.6-c138 79.159824, 2016/09/14-01:09:01        ">
   <rdf:RDF xmlns:rdf="http://www.w3.org/1999/02/22-rdf-syntax-ns#">
      <rdf:Description rdf:about=""/>
   </rdf:RDF>
</x:xmpmeta>
                                                                                                    
                                                                                                    
                                                                                                    
                                                                                                    
                                                                                                    
                                                                                                    
                                                                                                    
                                                                                                    
                                                                                                    
                                                                                                    
                                                                                                    
                                                                                                    
                                                                                                    
                                                                                                    
                                                                                                    
                                                                                                    
                                                                                                    
                                                                                                    
                                                                                                    
                                                                                                    
                           
<?xpacket end="w"?></metadata>
<defs>
    <style>
      .cls-1 {
        fill: #ec7735;
        fill-rule: evenodd;
      }
    </style>
  </defs>
  <path id="ок" class="cls-1" d="M1129.83,794a18.992,18.992,0,1,1-19.17,18.992A19.08,19.08,0,0,1,1129.83,794Zm0.11,11.967a1.98,1.98,0,1,1-2,1.98A1.994,1.994,0,0,1,1129.94,805.967Zm0,6.759a4.781,4.781,0,1,0-4.83-4.779,4.8,4.8,0,0,0,4.83,4.779m1.95,3.9a9.08,9.08,0,0,0,2.8-1.15,1.4,1.4,0,0,0,.45-1.931,1.422,1.422,0,0,0-1.95-.441,6.18,6.18,0,0,1-6.5,0,1.422,1.422,0,0,0-1.95.441,1.4,1.4,0,0,0,.45,1.931,9,9,0,0,0,2.8,1.15l-2.7,2.673a1.4,1.4,0,0,0,0,1.981,1.425,1.425,0,0,0,2,0l2.65-2.627,2.65,2.627a1.424,1.424,0,0,0,2,0,1.394,1.394,0,0,0,0-1.98l-2.7-2.674" transform="translate(-1110.66 -794)"/>
</svg>
