<svg xmlns="http://www.w3.org/2000/svg" width="20" height="20" viewBox="0 0 20 20">
  <metadata><?xpacket begin="﻿" id="W5M0MpCehiHzreSzNTczkc9d"?>
<x:xmpmeta xmlns:x="adobe:ns:meta/" x:xmptk="Adobe XMP Core 5.6-c138 79.159824, 2016/09/14-01:09:01        ">
   <rdf:RDF xmlns:rdf="http://www.w3.org/1999/02/22-rdf-syntax-ns#">
      <rdf:Description rdf:about=""/>
   </rdf:RDF>
</x:xmpmeta>
 <?xpacket end="w"?></metadata>
<defs>
    <style>
      .cls-1 {
        fill: #0087cb;
        fill-rule: evenodd;
      }
    </style>
  </defs>
  <path id="Телеграм" class="cls-1" d="M1034,40a10,10,0,1,1-10-10,10,10,0,0,1,10,10h0Zm-5.75-4.43-9.7,3.777a0.355,0.355,0,0,0,.03.669l2.47,0.727,0.92,2.918a0.418,0.418,0,0,0,.7.168l1.28-1.3,2.49,1.835a0.521,0.521,0,0,0,.82-0.314l1.66-7.913a0.5,0.5,0,0,0-.67-0.567h0Zm-1.22,1.756-4.5,3.981a0.288,0.288,0,0,0-.08.154L1022.28,43a0.046,0.046,0,0,1-.09.009l-0.72-2.3a0.241,0.241,0,0,1,.11-0.278l5.31-3.3a0.117,0.117,0,0,1,.14.188h0Z" transform="translate(-1014 -30)"/>
</svg>
