<svg xmlns="http://www.w3.org/2000/svg" width="31.969" height="32.188" viewBox="0 0 31.969 32.188">
  <metadata><?xpacket begin="﻿" id="W5M0MpCehiHzreSzNTczkc9d"?>
<x:xmpmeta xmlns:x="adobe:ns:meta/" x:xmptk="Adobe XMP Core 5.6-c138 79.159824, 2016/09/14-01:09:01        ">
   <rdf:RDF xmlns:rdf="http://www.w3.org/1999/02/22-rdf-syntax-ns#">
      <rdf:Description rdf:about=""/>
   </rdf:RDF>
</x:xmpmeta>
                                                                                                    
                                                                                                    
                                                                                                    
                                                                                                    
                                                                                                    
                                                                                                    
                                                                                                    
                                                                                                    
                                                                                                    
                                                                                                    
                                                                                                    
                                                                                                    
                                                                                                    
                                                                                                    
                                                                                                    
                                                                                                    
                                                                                                    
                                                                                                    
                                                                                                    
                                                                                                    
                           
<?xpacket end="w"?></metadata>
<defs>
    <style>
      .cls-1 {
        fill: #ef8818;
        fill-rule: evenodd;
      }
    </style>
  </defs>
  <path id="Фигура_11" data-name="Фигура 11" class="cls-1" d="M694.767,612.577a0.767,0.767,0,0,0-.9.019l-2.49,1.719,0.967-2.8a0.676,0.676,0,0,0-.265-0.782L689.558,609l3.118,0a0.728,0.728,0,0,0,.712-0.524l0.943-2.766,0.958,2.809a0.74,0.74,0,0,0,.758.48l3.06,0-2.525,1.73a0.675,0.675,0,0,0-.268.782l0.967,2.8Zm7.041-3.711v0a0.676,0.676,0,0,0,.3-0.565,0.712,0.712,0,0,0-.732-0.69l-4.856.006-1.493-4.378,0,0a0.706,0.706,0,0,0-.47-0.447,0.742,0.742,0,0,0-.923.447l-1.492,4.375-4.855-.008a0.752,0.752,0,0,0-.6.285,0.671,0.671,0,0,0,.164.972l3.933,2.695-1.5,4.332a0.669,0.669,0,0,0,.09.666,0.762,0.762,0,0,0,1.026.149L694.331,614l3.923,2.707a0.772,0.772,0,0,0,.664.1,0.691,0.691,0,0,0,.468-0.88l-1.51-4.369Zm-12.978-5.558a0.431,0.431,0,0,0,.291-0.276l0.077-.239,0.077,0.239a0.432,0.432,0,0,0,.292.276l0.25,0.072-0.251.073a0.424,0.424,0,0,0-.29.276h0l-0.077.238-0.077-.238a0.432,0.432,0,0,0-.291-0.276l-0.253-.073Zm-1.884.471,1.4,0.407,0.425,1.31a0.429,0.429,0,0,0,.3.291,0.443,0.443,0,0,0,.55-0.276l0.432-1.325,1.382-.4a0.429,0.429,0,0,0,.308-0.28,0.413,0.413,0,0,0-.291-0.523l-1.4-.407-0.425-1.309a0.427,0.427,0,0,0-.3-0.293,0.447,0.447,0,0,0-.551.277l-0.429,1.325-1.383.4a0.438,0.438,0,0,0-.308.28A0.413,0.413,0,0,0,686.946,603.779Zm15.352,9.693a0.435,0.435,0,0,0-.291.276l-0.078.238-0.076-.238a0.427,0.427,0,0,0-.293-0.276l-0.248-.073,0.25-.074a0.423,0.423,0,0,0,.291-0.276l0.079-.237,0.075,0.237a0.423,0.423,0,0,0,.293.276h0l0.252,0.074Zm1.885-.472-1.4-.407-0.424-1.309a0.434,0.434,0,0,0-.3-0.295,0.449,0.449,0,0,0-.55.279l-0.432,1.325-1.381.4a0.436,0.436,0,0,0-.309.28,0.414,0.414,0,0,0,.291.522l1.4,0.407,0.423,1.31a0.434,0.434,0,0,0,.3.293,0.447,0.447,0,0,0,.55-0.279l0.429-1.324,1.384-.4a0.434,0.434,0,0,0,.309-0.28A0.416,0.416,0,0,0,704.183,613Zm-5.278-10.664a0.435,0.435,0,0,0,.292-0.276l0.4-1.222,0.4,1.222a0.422,0.422,0,0,0,.29.274v0l1.289,0.374-1.289.374a0.434,0.434,0,0,0-.29.279h0l-0.395,1.219-0.4-1.222a0.429,0.429,0,0,0-.292-0.274v0l-1.289-.374Zm-2.92.773,2.44,0.711,0.742,2.291a0.447,0.447,0,0,0,.848.015l0.749-2.31,2.422-.7a0.43,0.43,0,0,0,.308-0.281,0.414,0.414,0,0,0-.291-0.522l-2.439-.707-0.745-2.3a0.424,0.424,0,0,0-.3-0.292,0.445,0.445,0,0,0-.55.277l-0.749,2.31-2.421.7a0.427,0.427,0,0,0-.308.281A0.414,0.414,0,0,0,695.985,603.109Zm-1.157,21.984A16.093,16.093,0,1,1,710.812,609,16.037,16.037,0,0,1,694.828,625.093Zm0-3A13.094,13.094,0,1,0,681.843,609a13.055,13.055,0,0,0,12.985,13.094" transform="translate(-678.844 -592.906)"/>
</svg>
