<svg xmlns="http://www.w3.org/2000/svg" width="31.972" height="32.188" viewBox="0 0 31.972 32.188">
  <metadata><?xpacket begin="﻿" id="W5M0MpCehiHzreSzNTczkc9d"?>
<x:xmpmeta xmlns:x="adobe:ns:meta/" x:xmptk="Adobe XMP Core 5.6-c138 79.159824, 2016/09/14-01:09:01        ">
   <rdf:RDF xmlns:rdf="http://www.w3.org/1999/02/22-rdf-syntax-ns#">
      <rdf:Description rdf:about=""/>
   </rdf:RDF>
</x:xmpmeta>
                                                                                                    
                                                                                                    
                                                                                                    
                                                                                                    
                                                                                                    
                                                                                                    
                                                                                                    
                                                                                                    
                                                                                                    
                                                                                                    
                                                                                                    
                                                                                                    
                                                                                                    
                                                                                                    
                                                                                                    
                                                                                                    
                                                                                                    
                                                                                                    
                                                                                                    
                                                                                                    
                           
<?xpacket end="w"?></metadata>
<defs>
    <style>
      .cls-1 {
        fill: #ef8818;
        fill-rule: evenodd;
      }
    </style>
  </defs>
  <path id="Фигура_12" data-name="Фигура 12" class="cls-1" d="M994.032,612.145a0.391,0.391,0,0,1-.271.1,0.44,0.44,0,0,0-.2.833,0.272,0.272,0,0,1,.142.154l0.006,0.017a0.279,0.279,0,0,1-.006.137,0.382,0.382,0,0,1-.086.154,0.357,0.357,0,0,1-.256.1,0.44,0.44,0,0,0-.177.842,0.251,0.251,0,0,1,.125.147l0,0.017a0.3,0.3,0,0,1,0,.135l0,0.014a0.34,0.34,0,0,1-.084.142l-0.007.006a0.347,0.347,0,0,1-.248.094,0.44,0.44,0,0,0-.189.837,0.313,0.313,0,0,1,.106.105l0.008,0.012a0.308,0.308,0,0,1,.035.143,0.314,0.314,0,0,1-.086.215h0a0.306,0.306,0,0,1-.214.087H989.6l-1.28-.534a0.436,0.436,0,0,0-.571.237,0.4,0.4,0,0,0-.036.166v0.08h-1.194v-4.645h1.21a0.438,0.438,0,0,0,.744.183A6.657,6.657,0,0,0,989.99,610l0.016-.035a3.2,3.2,0,0,0,.353-1.966,0.325,0.325,0,0,1,.035-0.259,0.224,0.224,0,0,1,.089-0.059v0a0.339,0.339,0,0,1,.159-0.014,0.308,0.308,0,0,1,.228.14v0a3.188,3.188,0,0,1,.069,2.811l0,0.017-0.124.445a0.44,0.44,0,0,0,.306.54,0.464,0.464,0,0,0,.117.015h2.578a0.3,0.3,0,0,1,.213.088h0a0.3,0.3,0,0,1,.088.214A0.277,0.277,0,0,1,994.032,612.145Zm0.962-.207a1.175,1.175,0,0,0-.347-0.833h0a1.171,1.171,0,0,0-.832-0.347h-2a3.786,3.786,0,0,0-.185-3.394h0a1.184,1.184,0,0,0-.863-0.569,1.241,1.241,0,0,0-.553.048l0,0a1.041,1.041,0,0,0-.485.328,1.143,1.143,0,0,0-.225.974,2.382,2.382,0,0,1-.276,1.425l-0.017.033a5.579,5.579,0,0,1-.912,1.274,0.457,0.457,0,0,0-.137-0.022h-2.073a0.439,0.439,0,0,0-.438.439v5.525a0.439,0.439,0,0,0,.438.439h2.073a0.437,0.437,0,0,0,.417-0.307l0.746,0.311a0.437,0.437,0,0,0,.2.047h3.111a1.172,1.172,0,0,0,.834-0.347h0l0,0a1.174,1.174,0,0,0,.25-1.294,0.981,0.981,0,0,0,.12-0.105l0.012-.011,0.012-.01a1.25,1.25,0,0,0,.3-0.517L994.16,615a1.146,1.146,0,0,0,0-.593l-0.01-.035a1.036,1.036,0,0,0-.038-0.111,1.057,1.057,0,0,0,.137-0.122,1.249,1.249,0,0,0,.305-0.539,1.161,1.161,0,0,0,0-.594l-0.008-.032-0.034-.1a1.463,1.463,0,0,0,.116-0.092A1.145,1.145,0,0,0,994.994,611.938Zm-14.234-9.769a3.846,3.846,0,0,1,4.463,0,2.584,2.584,0,0,1,.974,1.792h0l-0.006.63a13.6,13.6,0,0,0,.071,2.013,0.721,0.721,0,0,0,.119.4,0.378,0.378,0,0,0,.032.049h0a1.3,1.3,0,0,0,.1.115c0,0.007,0,.051,0,0.438a2.035,2.035,0,0,1-.263.957l-0.026.051a2.191,2.191,0,0,0-.192.448l-0.06.224-0.006.024-0.055.239a0.73,0.73,0,1,0,1.424.325l0.049-.211,0.062-.225a1.544,1.544,0,0,1,.08-0.166l0.018-.042a3.37,3.37,0,0,0,.433-1.624,1.689,1.689,0,0,0-.41-1.447l-0.006,0c-0.062-.08.074-0.821,0.083-1.556v0l0-.637v0h0a4.153,4.153,0,0,0-1.511-2.918,5.282,5.282,0,0,0-6.315,0,4.155,4.155,0,0,0-1.51,2.918l0,0.074,0,0.566v0c0.008,0.735.145,1.474,0.082,1.556l0,0-0.02.021A1.714,1.714,0,0,0,978,607.61a3.428,3.428,0,0,0,.453,1.67c0.042,0.082.077,0.151,0.084,0.168,0.03,0.12.064,0.255,0.1,0.42l0,0.016c0.03,0.144.06,0.309,0.09,0.51a1.893,1.893,0,0,0,.253.662,4.478,4.478,0,0,0,.425.588c-0.119,2.587-.8,2.817-2.566,3.412-0.5.169-1.082,0.363-1.773,0.641a1.8,1.8,0,0,0-.444.282v0a0.947,0.947,0,0,0-.168.2,0.676,0.676,0,0,0,.166.96,0.787,0.787,0,0,0,.484.171l0.039,0c2.061,0.06,4.132.04,6.2,0.019,0.89-.008,1.753-0.017,3.109-0.017a0.732,0.732,0,1,0,0-1.464c-0.718,0-1.934.012-3.122,0.023-0.843.009-1.687,0.017-2.533,0.018,1.367-.61,1.946-1.447,2.068-4.214v0a1.392,1.392,0,0,0-.046-0.422l-0.025-.082a1.353,1.353,0,0,0-.257-0.447,3.062,3.062,0,0,1-.3-0.4,0.611,0.611,0,0,1-.066-0.134c-0.032-.215-0.068-0.406-0.1-0.581l-0.007-.038c-0.036-.166-0.077-0.331-0.125-0.5a2.316,2.316,0,0,0-.191-0.442,2.134,2.134,0,0,1-.288-1.008v-0.436l0.056-.06,0.05-.057a6.422,6.422,0,0,0,.221-2.466l0-.571v-0.059A2.584,2.584,0,0,1,980.76,602.169Zm3.412,23.924A16.093,16.093,0,1,1,1000.16,610,16.037,16.037,0,0,1,984.172,626.093Zm0-3A13.094,13.094,0,1,0,971.187,610a13.055,13.055,0,0,0,12.985,13.094" transform="translate(-968.188 -593.906)"/>
</svg>
