<svg xmlns="http://www.w3.org/2000/svg" width="31.97" height="32.188" viewBox="0 0 31.97 32.188">
  <metadata><?xpacket begin="﻿" id="W5M0MpCehiHzreSzNTczkc9d"?>
<x:xmpmeta xmlns:x="adobe:ns:meta/" x:xmptk="Adobe XMP Core 5.6-c138 79.159824, 2016/09/14-01:09:01        ">
   <rdf:RDF xmlns:rdf="http://www.w3.org/1999/02/22-rdf-syntax-ns#">
      <rdf:Description rdf:about=""/>
   </rdf:RDF>
</x:xmpmeta>
                                                                                                    
                                                                                                    
                                                                                                    
                                                                                                    
                                                                                                    
                                                                                                    
                                                                                                    
                                                                                                    
                                                                                                    
                                                                                                    
                                                                                                    
                                                                                                    
                                                                                                    
                                                                                                    
                                                                                                    
                                                                                                    
                                                                                                    
                                                                                                    
                                                                                                    
                                                                                                    
                           
<?xpacket end="w"?></metadata>
<defs>
    <style>
      .cls-1 {
        fill: #ef8818;
        fill-rule: evenodd;
      }
    </style>
  </defs>
  <path id="Фигура_13" data-name="Фигура 13" class="cls-1" d="M1308.85,609.623a5.7,5.7,0,0,1-1.91,3.712v1.727a1.658,1.658,0,0,1-1.68,1.635h-1.12a1.676,1.676,0,0,1-1.65-1.3,10.084,10.084,0,0,1-2.83.045,1.665,1.665,0,0,1-1.63,1.251h-1.13a1.664,1.664,0,0,1-1.68-1.635v-1.45a6.256,6.256,0,0,1-1.76-2.23,1.654,1.654,0,0,1-1.61-1.633v-1.094a1.654,1.654,0,0,1,1.61-1.633,6.306,6.306,0,0,1,1.76-2.232v-1.117a0.7,0.7,0,0,1,.38-0.615,2.37,2.37,0,0,1,2.53.222,9.85,9.85,0,0,1,1.82-.35l0.14,1.386a8.161,8.161,0,0,0-1.91.414,0.726,0.726,0,0,1-.8-0.219,0.884,0.884,0,0,0-.72-0.329v0.943a0.691,0.691,0,0,1-.29.554,4.916,4.916,0,0,0-1.75,2.262,0.717,0.717,0,0,1-.68.473h-0.41a0.244,0.244,0,0,0-.25.241v1.094a0.246,0.246,0,0,0,.25.242h0.41a0.715,0.715,0,0,1,.68.471,4.9,4.9,0,0,0,1.75,2.262,0.69,0.69,0,0,1,.29.554v1.784a0.242,0.242,0,0,0,.24.242h1.13a0.245,0.245,0,0,0,.25-0.242v-0.438a0.707,0.707,0,0,1,.26-0.542,0.757,0.757,0,0,1,.61-0.139,8.5,8.5,0,0,0,3.84-.068,0.736,0.736,0,0,1,.62.124,0.678,0.678,0,0,1,.28.55v0.513a0.245,0.245,0,0,0,.25.242h1.12a0.245,0.245,0,0,0,.25-0.242v-2.037a0.679,0.679,0,0,1,.25-0.526,4.342,4.342,0,0,0,1.68-3.3,0.848,0.848,0,0,1,.15-0.459,0.74,0.74,0,0,1-.25-0.393,5.119,5.119,0,0,0-2.94-3.307l0.64-1.248a7.079,7.079,0,0,1,3.12,2.8,0.692,0.692,0,0,1,.39-0.644,0.731,0.731,0,0,1,.84.134,2.189,2.189,0,0,1,.66,1.572A2.246,2.246,0,0,1,1308.85,609.623Zm-6.07-9.027a1.186,1.186,0,1,0,1.22,1.185A1.206,1.206,0,0,0,1302.78,600.6Zm0,3.1a1.916,1.916,0,1,1,1.97-1.915A1.944,1.944,0,0,1,1302.78,603.7Zm0-4.439a2.524,2.524,0,1,0,2.59,2.524A2.568,2.568,0,0,0,1302.78,599.257Zm0,6.507a3.985,3.985,0,1,1,4.09-3.983A4.048,4.048,0,0,1,1302.78,605.764Zm2.4,0.408a0.722,0.722,0,0,1-.63.361,0.748,0.748,0,0,1-.35-0.086,7.9,7.9,0,0,0-4.28-.836,0.692,0.692,0,0,1-.77-0.637,0.7,0.7,0,0,1,.66-0.749,9.3,9.3,0,0,1,5.08,1A0.687,0.687,0,0,1,1305.18,606.172Zm-8.26,2.178a0.669,0.669,0,1,1,.69-0.669A0.68,0.68,0,0,1,1296.92,608.35Zm3.91,16.743A16.093,16.093,0,1,1,1316.81,609,16.042,16.042,0,0,1,1300.83,625.093Zm0-3A13.094,13.094,0,1,0,1287.84,609a13.05,13.05,0,0,0,12.99,13.094" transform="translate(-1284.84 -592.906)"/>
</svg>
