<svg xmlns="http://www.w3.org/2000/svg" width="16.062" height="9" viewBox="0 0 16.062 9">
  <metadata><?xpacket begin="﻿" id="W5M0MpCehiHzreSzNTczkc9d"?>
<x:xmpmeta xmlns:x="adobe:ns:meta/" x:xmptk="Adobe XMP Core 5.6-c138 79.159824, 2016/09/14-01:09:01        ">
   <rdf:RDF xmlns:rdf="http://www.w3.org/1999/02/22-rdf-syntax-ns#">
      <rdf:Description rdf:about=""/>
   </rdf:RDF>
</x:xmpmeta>
<?xpacket end="w"?></metadata>
<defs>
    <style>
      .cls-1 {
        fill: #001825;
        fill-rule: evenodd;
      }
    </style>
  </defs>
  <path id="Вк" class="cls-1" d="M990.884,2098.19a4.966,4.966,0,0,0-1.743-.15,10.8,10.8,0,0,0-1.736.08,10.088,10.088,0,0,0-1.022,1.82c-0.555,1-1.228,1.97-1.656,1.95-0.563,0-.428-1.64-0.388-2.86a1.361,1.361,0,0,0-.246-1.13,4.641,4.641,0,0,0-1.1-.38s-2.425-.18-2.765.82c0.467,0.06,1.26-.07.95,3.03-0.023.15-.372,1.43-1.5-0.3-0.286-.43-1.363-3.02-1.744-3.03a9.335,9.335,0,0,0-2.908.15c-0.4.23,0.539,2,2.132,4.39,1.291,1.96,2.662,3.47,5.04,3.85a6.194,6.194,0,0,0,1.981-.07c0.246-.12-0.064-1.8.785-1.97,0.372-.07,1.822,1.76,2.369,1.97a5.548,5.548,0,0,0,1.807.15c0.808-.02,1.727.08,1.814-0.46,0.2-1.16-2.448-2.68-2.52-3.39-0.063-.51.968-1.46,1.49-2.19,0.65-.88,1.363-1.95.959-2.28h0Z" transform="translate(-974.938 -2097.5)"/>
</svg>
