<svg xmlns="http://www.w3.org/2000/svg" width="38.34" height="38" viewBox="0 0 38.34 38">
  <metadata><?xpacket begin="﻿" id="W5M0MpCehiHzreSzNTczkc9d"?>
<x:xmpmeta xmlns:x="adobe:ns:meta/" x:xmptk="Adobe XMP Core 5.6-c138 79.159824, 2016/09/14-01:09:01        ">
   <rdf:RDF xmlns:rdf="http://www.w3.org/1999/02/22-rdf-syntax-ns#">
      <rdf:Description rdf:about=""/>
   </rdf:RDF>
</x:xmpmeta>
                                                                                                    
                                                                                                    
                                                                                                    
                                                                                                    
                                                                                                    
                                                                                                    
                                                                                                    
                                                                                                    
                                                                                                    
                                                                                                    
                                                                                                    
                                                                                                    
                                                                                                    
                                                                                                    
                                                                                                    
                                                                                                    
                                                                                                    
                                                                                                    
                                                                                                    
                                                                                                    
                           
<?xpacket end="w"?></metadata>
<defs>
    <style>
      .cls-1 {
        fill: #597ca4;
        fill-rule: evenodd;
      }
    </style>
  </defs>
  <path id="Фигура_3" data-name="Фигура 3" class="cls-1" d="M1083.17,794A19,19,0,1,1,1064,813,19.09,19.09,0,0,1,1083.17,794Zm9.37,14.378a5.5,5.5,0,0,0-2.18-.2,12.67,12.67,0,0,0-2.18.1,13.181,13.181,0,0,0-1.29,2.357c-0.69,1.307-1.54,2.563-2.08,2.555-0.7-.011-0.54-2.158-0.5-3.733,0.03-1.045-.14-1.372-0.3-1.474a6.282,6.282,0,0,0-1.38-.491s-3.04-.228-3.47,1.081c0.57,0.075,1.57-.108,1.19,3.93-0.02.2-.47,1.86-1.89-0.393-0.35-.557-1.71-3.917-2.18-3.931a10.826,10.826,0,0,0-3.66.2c-0.51.277,0.68,2.6,2.67,5.7,1.64,2.534,3.36,4.513,6.35,5.01a7.355,7.355,0,0,0,2.47-.1c0.32-.153-0.07-2.35.99-2.555,0.48-.091,2.29,2.282,2.98,2.555a7.093,7.093,0,0,0,2.28.2c1.01-.032,2.16.089,2.28-0.589,0.24-1.515-3.08-3.485-3.18-4.423-0.07-.67,1.22-1.908,1.89-2.848,0.81-1.144,1.69-2.522,1.19-2.947h0Z" transform="translate(-1064 -794)"/>
</svg>
