<svg xmlns="http://www.w3.org/2000/svg" width="20" height="20" viewBox="0 0 20 20">
  <metadata><?xpacket begin="﻿" id="W5M0MpCehiHzreSzNTczkc9d"?>
<x:xmpmeta xmlns:x="adobe:ns:meta/" x:xmptk="Adobe XMP Core 5.6-c138 79.159824, 2016/09/14-01:09:01        ">
   <rdf:RDF xmlns:rdf="http://www.w3.org/1999/02/22-rdf-syntax-ns#">
      <rdf:Description rdf:about=""/>
   </rdf:RDF>
</x:xmpmeta>
                                                                                                    
                                                                                                    
                                                                                                    
                                                                                                    
                                                                                                    
                                                                                                    
                                                                                                    
                                                                                                    
                                                                                                    
                                                                                                    
                                                                                                    
                                                                                                    
                                                                                                    
                                                                                                    
                                                                                                    
                                                                                                    
                                                                                                    
                                                                                                    
                                                                                                    
                                                                                                    
                           
<?xpacket end="w"?></metadata>
<defs>
    <style>
      .cls-1 {
        fill: #52ae32;
        fill-rule: evenodd;
      }
    </style>
  </defs>
  <path id="Вотсап" class="cls-1" d="M1010,40a10,10,0,1,1-10-10A10,10,0,0,1,1010,40Zm-9.94-6.51a6.136,6.136,0,0,0-5.272,9.264l-0.989,3.2,3.386-.917a6.135,6.135,0,1,0,2.875-11.551m0,11.267a5.1,5.1,0,0,1-2.735-.792l-0.073.02-1.96.53,0.591-1.914a5.135,5.135,0,1,1,4.177,2.156m-1.007-6.644a0.452,0.452,0,0,1,0,.5c-0.181.224-.33,0.394-0.33,0.394a0.238,0.238,0,0,0,0,.351,4.46,4.46,0,0,0,1.957,1.694,0.376,0.376,0,0,0,.5-0.192l0.37-.469s0.08-.118.36,0,1.15,0.543,1.15.543a0.243,0.243,0,0,1,.13.288,1.319,1.319,0,0,1-1.38,1.236,4.363,4.363,0,0,1-2.576-1.012,7.338,7.338,0,0,1-1.788-2.053c-0.023-.038-0.043-0.075-0.063-0.111a2.313,2.313,0,0,1-.283-1.107c0-.043,0-0.087,0-0.133a1.308,1.308,0,0,1,.809-1.176,1.541,1.541,0,0,1,.586,0Z" transform="translate(-990 -30)"/>
</svg>
