<svg width="73.168" height="73.168" xmlns="http://www.w3.org/2000/svg">

 <g>
  <title>background</title>
  <rect fill="none" id="canvas_background" height="402" width="582" y="-1" x="-1"/>
 </g>
 <g>
  <title>Layer 1</title>
  <g id="svg_1">
   <g id="svg_2">
    <g id="Navigation">
     <g id="svg_3">
      <path id="svg_4" fill="#ea603b" class="active-path" d="m4.242,14.425l64.684,0c2.344,0 4.242,-1.933 4.242,-4.324c0,-2.385 -1.898,-4.325 -4.242,-4.325l-64.684,0c-2.344,0 -4.242,1.94 -4.242,4.325c0,2.392 1.898,4.324 4.242,4.324zm64.684,17.834l-64.684,0c-2.344,0 -4.242,1.941 -4.242,4.325c0,2.393 1.898,4.325 4.242,4.325l64.684,0c2.344,0 4.242,-1.933 4.242,-4.325c0,-2.384 -1.898,-4.325 -4.242,-4.325zm0,26.483l-64.684,0c-2.344,0 -4.242,1.941 -4.242,4.325c0,2.393 1.898,4.325 4.242,4.325l64.684,0c2.344,0 4.242,-1.935 4.242,-4.325c0,-2.384 -1.898,-4.325 -4.242,-4.325z"/>
     </g>
    </g>
   </g>
  </g>
 </g>
</svg>